<svg width="80" height="81" viewBox="0 0 80 81" fill="none" xmlns="http://www.w3.org/2000/svg">
<circle cx="40" cy="40.6597" r="40" fill="#F9E68C"/>
<path d="M54.7352 37.4747L41.2427 23.6847C41.08 23.5206 40.8865 23.3905 40.6732 23.3016C40.46 23.2128 40.2312 23.167 40.0002 23.167C39.7692 23.167 39.5404 23.2128 39.3272 23.3016C39.1139 23.3905 38.9204 23.5206 38.7577 23.6847L25.2652 37.4922C24.9387 37.8213 24.6809 38.212 24.5066 38.6416C24.3324 39.0712 24.2452 39.5311 24.2502 39.9947V54.6597C24.2488 55.5555 24.5911 56.4178 25.2064 57.0689C25.8217 57.72 26.6632 58.1104 27.5577 58.1597H52.4427C53.3372 58.1104 54.1787 57.72 54.794 57.0689C55.4093 56.4178 55.7516 55.5555 55.7502 54.6597V39.9947C55.7516 39.0548 55.3876 38.1512 54.7352 37.4747V37.4747ZM36.5002 54.6597V44.1597H43.5002V54.6597H36.5002ZM52.2502 54.6597H47.0002V42.4097C47.0002 41.9455 46.8158 41.5004 46.4876 41.1722C46.1594 40.844 45.7143 40.6597 45.2502 40.6597H34.7502C34.2861 40.6597 33.841 40.844 33.5128 41.1722C33.1846 41.5004 33.0002 41.9455 33.0002 42.4097V54.6597H27.7502V39.9247L40.0002 27.4122L52.2502 39.9947V54.6597Z" fill="#936801"/>
</svg>
