<svg width="80" height="81" viewBox="0 0 80 81" fill="none" xmlns="http://www.w3.org/2000/svg">
<circle cx="40" cy="40.6597" r="40" fill="#E8CDB5"/>
<path d="M40 23.1597C36.5388 23.1597 33.1554 24.186 30.2775 26.109C27.3997 28.0319 25.1566 30.765 23.8321 33.9627C22.5076 37.1604 22.161 40.6791 22.8363 44.0737C23.5115 47.4684 25.1782 50.5866 27.6256 53.034C30.0731 55.4815 33.1913 57.1482 36.5859 57.8234C39.9806 58.4987 43.4993 58.1521 46.697 56.8276C49.8947 55.503 52.6278 53.26 54.5507 50.3821C56.4736 47.5043 57.5 44.1208 57.5 40.6597C57.5 38.3615 57.0474 36.0859 56.1679 33.9627C55.2884 31.8395 53.9994 29.9103 52.3744 28.2853C50.7494 26.6603 48.8202 25.3712 46.697 24.4918C44.5738 23.6123 42.2981 23.1597 40 23.1597V23.1597ZM40 26.6597C41.0545 26.6666 42.105 26.7898 43.1325 27.0272C42.8283 27.7139 42.3595 28.3149 41.7675 28.7772C41.3825 29.0747 40.9625 29.3197 40.5425 29.5822C39.2129 30.2368 38.0919 31.2488 37.305 32.5047C36.443 34.3012 36.0688 36.2928 36.22 38.2797C36.22 40.6597 36.22 42.0597 34.5575 43.3022C32.16 45.1747 28.5025 44.1247 26.2275 43.1797C26.0788 42.3478 26.0027 41.5047 26 40.6597C26 36.9466 27.475 33.3857 30.1005 30.7602C32.726 28.1347 36.287 26.6597 40 26.6597V26.6597ZM27.75 47.3097C28.8935 47.6069 30.0686 47.7656 31.25 47.7822C33.2268 47.8365 35.1637 47.2197 36.745 46.0322C39.7375 43.6872 39.7375 40.6772 39.7375 38.2622C39.6048 36.8644 39.8275 35.4558 40.385 34.1672C40.8915 33.4775 41.5663 32.9292 42.345 32.5747C42.9014 32.2495 43.4389 31.8931 43.955 31.5072C45.0426 30.6481 45.8871 29.5201 46.405 28.2347C48.8672 29.4944 50.901 31.4552 52.25 33.8697C49.7475 34.2197 46.195 35.0422 45.495 38.2972C45.337 39.0749 45.255 39.8661 45.25 40.6597C45.3067 41.5467 45.1318 42.4331 44.7425 43.2322L44.5675 43.5297C43.43 45.4197 42.1525 47.5722 43.885 50.5297C44.095 50.8972 44.3225 51.2472 44.55 51.5972C45.0158 52.1352 45.3299 52.7875 45.46 53.4872C43.7389 54.2458 41.8809 54.6448 40 54.6597C37.4863 54.6471 35.0224 53.958 32.867 52.6647C30.7115 51.3715 28.944 49.5217 27.75 47.3097V47.3097ZM48.6275 51.7197C48.3248 51.0209 47.9556 50.3528 47.525 49.7247C47.3325 49.4447 47.14 49.1647 46.965 48.8672C46.2825 47.6772 46.5275 47.1172 47.63 45.3672L47.805 45.0697C48.4908 43.7608 48.8169 42.2933 48.75 40.8172C48.7482 40.2302 48.801 39.6444 48.9075 39.0672C49.1875 37.7897 51.9 37.4397 53.58 37.3172C54.259 39.9571 54.1465 42.7384 53.2566 45.3148C52.3667 47.8913 50.7386 50.1491 48.575 51.8072L48.6275 51.7197Z" fill="#876349"/>
</svg>
