<svg width="16" height="16" viewBox="0 0 16 16" fill="none" xmlns="http://www.w3.org/2000/svg">
<path d="M8.00008 14C7.91234 14.0005 7.82537 13.9837 7.74414 13.9505C7.66292 13.9174 7.58904 13.8685 7.52674 13.8067L2.34674 8.62001C1.69699 7.96346 1.33252 7.07706 1.33252 6.15334C1.33252 5.22963 1.69699 4.34323 2.34674 3.68668C3.00159 3.03369 3.88863 2.66699 4.81341 2.66699C5.73819 2.66699 6.62524 3.03369 7.28008 3.68668L8.00008 4.40668L8.72008 3.68668C9.37492 3.03369 10.262 2.66699 11.1867 2.66699C12.1115 2.66699 12.9986 3.03369 13.6534 3.68668C14.3032 4.34323 14.6676 5.22963 14.6676 6.15334C14.6676 7.07706 14.3032 7.96346 13.6534 8.62001L8.47341 13.8067C8.41112 13.8685 8.33724 13.9174 8.25602 13.9505C8.17479 13.9837 8.08782 14.0005 8.00008 14Z" fill="#CE2B30"/>
</svg>
