<svg width="554" height="554" viewBox="0 0 554 554" fill="none" xmlns="http://www.w3.org/2000/svg">
<g clip-path="url(#clip0_402_14052)">
<path d="M166.542 124.957C93.2398 198.26 68.2274 293.114 126.757 369.861C135.465 381.278 152.146 381.184 162.3 371.03L414.03 119.3C424.183 109.147 424.279 92.4618 412.837 83.7855C335.899 25.4441 239.846 51.6536 166.542 124.957Z" fill="#4158F6"/>
<path fill-rule="evenodd" clip-rule="evenodd" d="M145.067 354.283C145.151 354.223 145.24 354.149 145.329 354.06L397.059 102.33C397.137 102.251 397.203 102.174 397.259 102.1C333.966 55.0124 251.995 73.4461 183.513 141.928C149.382 176.058 127.778 213.962 120.788 250.614C113.986 286.279 120.732 321.824 145.067 354.283ZM126.757 369.861C68.2274 293.114 93.2398 198.26 166.542 124.957C239.846 51.6536 335.899 25.4441 412.837 83.7855C424.279 92.4618 424.183 109.147 414.03 119.3L162.3 371.03C152.146 381.184 135.465 381.278 126.757 369.861Z" fill="#4158F6"/>
<path d="M386.453 429.649C313.15 502.952 218.296 527.964 141.55 469.434C130.132 460.726 130.226 444.045 140.38 433.892L392.11 182.162C402.264 172.008 418.948 171.912 427.625 183.354C485.966 260.292 459.757 356.345 386.453 429.649Z" fill="#58C4EC"/>
<path fill-rule="evenodd" clip-rule="evenodd" d="M157.127 451.124C157.187 451.04 157.261 450.952 157.35 450.862L409.08 199.132C409.159 199.054 409.236 198.988 409.31 198.933C456.398 262.225 437.964 344.197 369.483 412.678C335.352 446.809 297.448 468.414 260.797 475.404C225.132 482.206 189.586 475.459 157.127 451.124ZM141.55 469.434C218.296 527.964 313.15 502.952 386.453 429.649C459.757 356.345 485.966 260.292 427.625 183.354C418.948 171.912 402.264 172.008 392.11 182.162L140.38 433.892C130.226 444.045 130.132 460.726 141.55 469.434Z" fill="#58C4EC"/>
</g>
<defs>
<clipPath id="clip0_402_14052">
<rect width="554" height="554" fill="white"/>
</clipPath>
</defs>
</svg>
