<svg width="80" height="80" viewBox="0 0 80 80" fill="none" xmlns="http://www.w3.org/2000/svg">
<circle cx="40" cy="40" r="40" fill="#671E22"/>
<path d="M40.0004 55.75C39.7701 55.7513 39.5418 55.7072 39.3285 55.6201C39.1153 55.533 38.9214 55.4047 38.7579 55.2425L25.1604 41.6275C23.4548 39.9041 22.498 37.5773 22.498 35.1525C22.498 32.7278 23.4548 30.401 25.1604 28.6775C26.8793 26.9634 29.2078 26.0008 31.6354 26.0008C34.0629 26.0008 36.3914 26.9634 38.1104 28.6775L40.0004 30.5675L41.8904 28.6775C43.6093 26.9634 45.9378 26.0008 48.3654 26.0008C50.7929 26.0008 53.1214 26.9634 54.8404 28.6775C56.546 30.401 57.5027 32.7278 57.5027 35.1525C57.5027 37.5773 56.546 39.9041 54.8404 41.6275L41.2429 55.2425C41.0794 55.4047 40.8854 55.533 40.6722 55.6201C40.459 55.7072 40.2307 55.7513 40.0004 55.75ZM31.6354 29.5C30.8946 29.4967 30.1605 29.6403 29.4756 29.9227C28.7907 30.2051 28.1686 30.6205 27.6454 31.145C26.5885 32.2075 25.9952 33.6451 25.9952 35.1438C25.9952 36.6424 26.5885 38.0801 27.6454 39.1425L40.0004 51.515L52.3554 39.1425C53.4123 38.0801 54.0056 36.6424 54.0056 35.1438C54.0056 33.6451 53.4123 32.2075 52.3554 31.145C51.2768 30.126 49.8492 29.5583 48.3654 29.5583C46.8816 29.5583 45.454 30.126 44.3754 31.145L41.2429 34.295C41.0802 34.459 40.8866 34.5892 40.6734 34.6781C40.4601 34.7669 40.2314 34.8127 40.0004 34.8127C39.7694 34.8127 39.5406 34.7669 39.3274 34.6781C39.1141 34.5892 38.9206 34.459 38.7579 34.295L35.6254 31.145C35.1022 30.6205 34.4801 30.2051 33.7952 29.9227C33.1103 29.6403 32.3762 29.4967 31.6354 29.5V29.5Z" fill="#F06950"/>
</svg>
