<svg width="80" height="80" viewBox="0 0 80 80" fill="none" xmlns="http://www.w3.org/2000/svg">
<circle cx="40" cy="40" r="40" fill="#0D3868"/>
<path d="M40 38.25C41.3845 38.25 42.7378 37.8395 43.889 37.0703C45.0401 36.3011 45.9373 35.2079 46.4672 33.9288C46.997 32.6497 47.1356 31.2422 46.8655 29.8844C46.5954 28.5265 45.9287 27.2792 44.9497 26.3003C43.9708 25.3213 42.7235 24.6546 41.3656 24.3845C40.0078 24.1144 38.6003 24.253 37.3212 24.7828C36.0421 25.3127 34.9489 26.2099 34.1797 27.361C33.4105 28.5122 33 29.8655 33 31.25C33 33.1065 33.7375 34.887 35.0503 36.1998C36.363 37.5125 38.1435 38.25 40 38.25ZM40 27.75C40.6922 27.75 41.3689 27.9553 41.9445 28.3399C42.5201 28.7244 42.9687 29.2711 43.2336 29.9106C43.4985 30.5502 43.5678 31.2539 43.4327 31.9328C43.2977 32.6118 42.9644 33.2354 42.4749 33.7249C41.9854 34.2144 41.3617 34.5477 40.6828 34.6828C40.0039 34.8178 39.3001 34.7485 38.6606 34.4836C38.0211 34.2187 37.4744 33.7701 37.0899 33.1945C36.7053 32.6189 36.5 31.9422 36.5 31.25C36.5 30.3217 36.8687 29.4315 37.5251 28.7751C38.1815 28.1188 39.0717 27.75 40 27.75Z" fill="#53A9FF"/>
<path d="M40 41.75C36.7511 41.75 33.6353 43.0406 31.3379 45.3379C29.0406 47.6353 27.75 50.7511 27.75 54C27.75 54.4641 27.9344 54.9092 28.2626 55.2374C28.5908 55.5656 29.0359 55.75 29.5 55.75C29.9641 55.75 30.4092 55.5656 30.7374 55.2374C31.0656 54.9092 31.25 54.4641 31.25 54C31.25 51.6794 32.1719 49.4538 33.8128 47.8128C35.4538 46.1719 37.6794 45.25 40 45.25C42.3206 45.25 44.5462 46.1719 46.1872 47.8128C47.8281 49.4538 48.75 51.6794 48.75 54C48.75 54.4641 48.9344 54.9092 49.2626 55.2374C49.5908 55.5656 50.0359 55.75 50.5 55.75C50.9641 55.75 51.4092 55.5656 51.7374 55.2374C52.0656 54.9092 52.25 54.4641 52.25 54C52.25 50.7511 50.9594 47.6353 48.6621 45.3379C46.3647 43.0406 43.2489 41.75 40 41.75V41.75Z" fill="#53A9FF"/>
</svg>
