<svg width="80" height="80" viewBox="0 0 80 80" fill="none" xmlns="http://www.w3.org/2000/svg">
<circle cx="40" cy="40" r="40" fill="#493B00"/>
<path d="M54.7352 36.815L41.2427 23.025C41.08 22.861 40.8865 22.7308 40.6732 22.6419C40.46 22.5531 40.2312 22.5074 40.0002 22.5074C39.7692 22.5074 39.5404 22.5531 39.3272 22.6419C39.1139 22.7308 38.9204 22.861 38.7577 23.025L25.2652 36.8325C24.9387 37.1616 24.6809 37.5523 24.5066 37.9819C24.3324 38.4115 24.2452 38.8714 24.2502 39.335V54C24.2488 54.8958 24.5911 55.7581 25.2064 56.4092C25.8217 57.0603 26.6632 57.4507 27.5577 57.5H52.4427C53.3372 57.4507 54.1787 57.0603 54.794 56.4092C55.4093 55.7581 55.7516 54.8958 55.7502 54V39.335C55.7516 38.3951 55.3876 37.4915 54.7352 36.815V36.815ZM36.5002 54V43.5H43.5002V54H36.5002ZM52.2502 54H47.0002V41.75C47.0002 41.2859 46.8158 40.8408 46.4876 40.5126C46.1594 40.1844 45.7143 40 45.2502 40H34.7502C34.2861 40 33.841 40.1844 33.5128 40.5126C33.1846 40.8408 33.0002 41.2859 33.0002 41.75V54H27.7502V39.265L40.0002 26.7525L52.2502 39.335V54Z" fill="#EFC000"/>
</svg>
