<svg width="16" height="16" viewBox="0 0 16 16" fill="none" xmlns="http://www.w3.org/2000/svg">
<path d="M6.57339 12C6.48198 11.9997 6.39161 11.9806 6.30788 11.9439C6.22416 11.9072 6.14888 11.8537 6.08672 11.7867L2.84672 8.34C2.72561 8.21093 2.66073 8.03903 2.66635 7.86212C2.67198 7.68521 2.74765 7.51778 2.87672 7.39667C3.0058 7.27555 3.17769 7.21067 3.3546 7.2163C3.53151 7.22192 3.69894 7.2976 3.82006 7.42667L6.56672 10.3533L12.1734 4.22C12.2303 4.14915 12.3011 4.09068 12.3814 4.04818C12.4617 4.00568 12.5499 3.98004 12.6404 3.97285C12.731 3.96566 12.8221 3.97707 12.9081 4.00637C12.9942 4.03567 13.0733 4.08224 13.1406 4.14323C13.208 4.20422 13.2622 4.27834 13.2999 4.36103C13.3375 4.44372 13.3579 4.53324 13.3597 4.62409C13.3615 4.71495 13.3448 4.80521 13.3104 4.88934C13.2761 4.97347 13.2249 5.0497 13.1601 5.11333L7.06672 11.78C7.00515 11.8482 6.93013 11.903 6.84638 11.9409C6.76263 11.9787 6.67196 11.9989 6.58006 12H6.57339Z" fill="#11181C"/>
</svg>
