<svg width="80" height="80" viewBox="0 0 80 80" fill="none" xmlns="http://www.w3.org/2000/svg">
<circle cx="40" cy="40" r="40" fill="#493528"/>
<path d="M40 22.5C36.5388 22.5 33.1554 23.5264 30.2775 25.4493C27.3997 27.3722 25.1566 30.1053 23.8321 33.303C22.5076 36.5007 22.161 40.0194 22.8363 43.4141C23.5115 46.8087 25.1782 49.927 27.6256 52.3744C30.0731 54.8218 33.1913 56.4885 36.5859 57.1637C39.9806 57.839 43.4993 57.4924 46.697 56.1679C49.8947 54.8434 52.6278 52.6003 54.5507 49.7225C56.4736 46.8446 57.5 43.4612 57.5 40C57.5 37.7019 57.0474 35.4262 56.1679 33.303C55.2884 31.1798 53.9994 29.2507 52.3744 27.6256C50.7494 26.0006 48.8202 24.7116 46.697 23.8321C44.5738 22.9527 42.2981 22.5 40 22.5V22.5ZM40 26C41.0545 26.0069 42.105 26.1301 43.1325 26.3675C42.8283 27.0542 42.3595 27.6553 41.7675 28.1175C41.3825 28.415 40.9625 28.66 40.5425 28.9225C39.2129 29.5771 38.0919 30.5891 37.305 31.845C36.443 33.6415 36.0688 35.6332 36.22 37.62C36.22 40 36.22 41.4 34.5575 42.6425C32.16 44.515 28.5025 43.465 26.2275 42.52C26.0788 41.6882 26.0027 40.845 26 40C26 36.287 27.475 32.726 30.1005 30.1005C32.726 27.475 36.287 26 40 26V26ZM27.75 46.65C28.8935 46.9473 30.0686 47.1059 31.25 47.1225C33.2268 47.1769 35.1637 46.56 36.745 45.3725C39.7375 43.0275 39.7375 40.0175 39.7375 37.6025C39.6048 36.2047 39.8275 34.7961 40.385 33.5075C40.8915 32.8179 41.5663 32.2696 42.345 31.915C42.9014 31.5899 43.4389 31.2335 43.955 30.8475C45.0426 29.9885 45.8871 28.8605 46.405 27.575C48.8672 28.8348 50.901 30.7956 52.25 33.21C49.7475 33.56 46.195 34.3825 45.495 37.6375C45.337 38.4152 45.255 39.2064 45.25 40C45.3067 40.887 45.1318 41.7735 44.7425 42.5725L44.5675 42.87C43.43 44.76 42.1525 46.9125 43.885 49.87C44.095 50.2375 44.3225 50.5875 44.55 50.9375C45.0158 51.4755 45.3299 52.1279 45.46 52.8275C43.7389 53.5861 41.8809 53.9851 40 54C37.4863 53.9875 35.0224 53.2984 32.867 52.0051C30.7115 50.7118 28.944 48.862 27.75 46.65V46.65ZM48.6275 51.06C48.3248 50.3612 47.9556 49.6931 47.525 49.065C47.3325 48.785 47.14 48.505 46.965 48.2075C46.2825 47.0175 46.5275 46.4575 47.63 44.7075L47.805 44.41C48.4908 43.1011 48.8169 41.6337 48.75 40.1575C48.7482 39.5706 48.801 38.9847 48.9075 38.4075C49.1875 37.13 51.9 36.78 53.58 36.6575C54.259 39.2974 54.1465 42.0787 53.2566 44.6552C52.3667 47.2316 50.7386 49.4894 48.575 51.1475L48.6275 51.06Z" fill="#DBA06F"/>
</svg>
