<svg width="80" height="80" viewBox="0 0 80 80" fill="none" xmlns="http://www.w3.org/2000/svg">
<circle cx="40" cy="40" r="40" fill="#3A2B72"/>
<path d="M53.125 54.375H26.875C25.7316 54.389 24.6292 53.9494 23.8092 53.1523C22.9892 52.3553 22.5184 51.2658 22.5 50.1225V28.8775C22.5184 27.7341 22.9892 26.6446 23.8092 25.8476C24.6292 25.0505 25.7316 24.6109 26.875 24.625H34.925C35.1835 24.6267 35.4384 24.6856 35.6714 24.7976C35.9044 24.9095 36.1097 25.0717 36.2725 25.2725L40.8225 30.8375H53.0725C53.6431 30.8235 54.2107 30.9227 54.7428 31.1293C55.2748 31.3359 55.7607 31.6459 56.1723 32.0412C56.5839 32.4366 56.9132 32.9095 57.141 33.4328C57.3689 33.9561 57.4909 34.5193 57.5 35.09V50.1225C57.4816 51.2658 57.0108 52.3553 56.1908 53.1523C55.3708 53.9494 54.2684 54.389 53.125 54.375V54.375ZM26 42.58V50.1225C26.0066 50.2298 26.0346 50.3348 26.0825 50.4312C26.1303 50.5275 26.197 50.6133 26.2786 50.6835C26.3602 50.7536 26.455 50.8067 26.5574 50.8396C26.6598 50.8725 26.7678 50.8845 26.875 50.875H53.125C53.2322 50.8845 53.3402 50.8725 53.4426 50.8396C53.545 50.8067 53.6398 50.7536 53.7214 50.6835C53.803 50.6133 53.8697 50.5275 53.9175 50.4312C53.9654 50.3348 53.9934 50.2298 54 50.1225V35.09C53.9934 34.9826 53.9654 34.8776 53.9175 34.7812C53.8697 34.6849 53.803 34.5991 53.7214 34.5289C53.6398 34.4588 53.545 34.4057 53.4426 34.3728C53.3402 34.3399 53.2322 34.3279 53.125 34.3375H40C39.7415 34.3357 39.4866 34.2768 39.2536 34.1648C39.0206 34.0529 38.8153 33.8907 38.6525 33.69L34.1025 28.125H26.875C26.7678 28.1154 26.6598 28.1274 26.5574 28.1603C26.455 28.1932 26.3602 28.2463 26.2786 28.3164C26.197 28.3866 26.1303 28.4724 26.0825 28.5687C26.0346 28.6651 26.0066 28.7701 26 28.8775V42.58Z" fill="#9E8DFC"/>
</svg>
