<svg width="80" height="81" viewBox="0 0 80 81" fill="none" xmlns="http://www.w3.org/2000/svg">
<circle cx="40" cy="40.6597" r="40" fill="#D8CFF9"/>
<path d="M53.125 55.0346H26.875C25.7316 55.0487 24.6292 54.609 23.8092 53.812C22.9892 53.015 22.5184 51.9255 22.5 50.7821V29.5371C22.5184 28.3938 22.9892 27.3043 23.8092 26.5072C24.6292 25.7102 25.7316 25.2706 26.875 25.2846H34.925C35.1835 25.2863 35.4384 25.3453 35.6714 25.4572C35.9044 25.5692 36.1097 25.7314 36.2725 25.9321L40.8225 31.4971H53.0725C53.6431 31.4832 54.2108 31.5824 54.7428 31.789C55.2748 31.9956 55.7607 32.3055 56.1723 32.7009C56.5839 33.0962 56.9132 33.5692 57.141 34.0925C57.3689 34.6157 57.4909 35.179 57.5 35.7496V50.7821C57.4816 51.9255 57.0108 53.015 56.1908 53.812C55.3708 54.609 54.2684 55.0487 53.125 55.0346ZM26 43.2396V50.7821C26.0066 50.8895 26.0346 50.9945 26.0825 51.0909C26.1303 51.1872 26.197 51.273 26.2786 51.3431C26.3602 51.4133 26.455 51.4664 26.5574 51.4993C26.6598 51.5322 26.7678 51.5442 26.875 51.5346H53.125C53.2322 51.5442 53.3402 51.5322 53.4426 51.4993C53.545 51.4664 53.6398 51.4133 53.7214 51.3431C53.803 51.273 53.8697 51.1872 53.9175 51.0909C53.9654 50.9945 53.9934 50.8895 54 50.7821V35.7496C53.9934 35.6422 53.9654 35.5373 53.9175 35.4409C53.8697 35.3445 53.803 35.2588 53.7214 35.1886C53.6398 35.1185 53.545 35.0654 53.4426 35.0325C53.3402 34.9996 53.2322 34.9876 53.125 34.9971H40C39.7415 34.9954 39.4866 34.9365 39.2536 34.8245C39.0206 34.7126 38.8153 34.5504 38.6525 34.3496L34.1025 28.7846H26.875C26.7678 28.7751 26.6598 28.7871 26.5574 28.82C26.455 28.8529 26.3602 28.906 26.2786 28.9761C26.197 29.0463 26.1303 29.132 26.0825 29.2284C26.0346 29.3248 26.0066 29.4297 26 29.5371V43.2396Z" fill="#5646AF"/>
</svg>
