<svg width="80" height="81" viewBox="0 0 80 81" fill="none" xmlns="http://www.w3.org/2000/svg">
<circle cx="40" cy="40.6597" r="40" fill="#F9C6C6"/>
<path d="M39.9999 56.4097C39.7696 56.411 39.5413 56.3669 39.3281 56.2798C39.1148 56.1927 38.9209 56.0644 38.7574 55.9022L25.1599 42.2872C23.4543 40.5638 22.4976 38.2369 22.4976 35.8122C22.4976 33.3875 23.4543 31.0606 25.1599 29.3372C26.8789 27.6231 29.2074 26.6605 31.6349 26.6605C34.0624 26.6605 36.3909 27.6231 38.1099 29.3372L39.9999 31.2272L41.8899 29.3372C43.6089 27.6231 45.9374 26.6605 48.3649 26.6605C50.7924 26.6605 53.1209 27.6231 54.8399 29.3372C56.5455 31.0606 57.5022 33.3875 57.5022 35.8122C57.5022 38.2369 56.5455 40.5638 54.8399 42.2872L41.2424 55.9022C41.0789 56.0644 40.8849 56.1927 40.6717 56.2798C40.4585 56.3669 40.2302 56.411 39.9999 56.4097ZM31.6349 30.1597C30.8941 30.1563 30.16 30.3 29.4751 30.5824C28.7902 30.8648 28.1681 31.2802 27.6449 31.8047C26.588 32.8672 25.9947 34.3048 25.9947 35.8034C25.9947 37.3021 26.588 38.7397 27.6449 39.8022L39.9999 52.1747L52.3549 39.8022C53.4118 38.7397 54.0051 37.3021 54.0051 35.8034C54.0051 34.3048 53.4118 32.8672 52.3549 31.8047C51.2763 30.7857 49.8487 30.218 48.3649 30.218C46.8811 30.218 45.4535 30.7857 44.3749 31.8047L41.2424 34.9547C41.0797 35.1187 40.8862 35.2489 40.6729 35.3378C40.4597 35.4266 40.2309 35.4723 39.9999 35.4723C39.7689 35.4723 39.5401 35.4266 39.3269 35.3378C39.1136 35.2489 38.9201 35.1187 38.7574 34.9547L35.6249 31.8047C35.1017 31.2802 34.4796 30.8648 33.7947 30.5824C33.1098 30.3 32.3757 30.1563 31.6349 30.1597Z" fill="#CE2B30"/>
</svg>
