<svg width="80" height="81" viewBox="0 0 80 81" fill="none" xmlns="http://www.w3.org/2000/svg">
<circle cx="40" cy="40.6597" r="40" fill="#B7D9F8"/>
<path d="M40 38.9097C41.3845 38.9097 42.7378 38.4991 43.889 37.73C45.0401 36.9608 45.9373 35.8675 46.4672 34.5885C46.997 33.3094 47.1356 31.9019 46.8655 30.544C46.5954 29.1862 45.9287 27.9389 44.9497 26.9599C43.9708 25.981 42.7235 25.3143 41.3656 25.0442C40.0078 24.7741 38.6003 24.9127 37.3212 25.4425C36.0421 25.9723 34.9489 26.8695 34.1797 28.0207C33.4105 29.1718 33 30.5252 33 31.9097C33 33.7662 33.7375 35.5467 35.0503 36.8594C36.363 38.1722 38.1435 38.9097 40 38.9097ZM40 28.4097C40.6922 28.4097 41.3689 28.6149 41.9445 28.9995C42.5201 29.3841 42.9687 29.9307 43.2336 30.5703C43.4985 31.2098 43.5678 31.9136 43.4327 32.5925C43.2977 33.2714 42.9644 33.8951 42.4749 34.3845C41.9854 34.874 41.3617 35.2074 40.6828 35.3424C40.0039 35.4775 39.3001 35.4082 38.6606 35.1432C38.0211 34.8783 37.4744 34.4297 37.0899 33.8542C36.7053 33.2786 36.5 32.6019 36.5 31.9097C36.5 30.9814 36.8687 30.0912 37.5251 29.4348C38.1815 28.7784 39.0717 28.4097 40 28.4097Z" fill="#0169DC"/>
<path d="M40 42.4097C36.7511 42.4097 33.6353 43.7003 31.3379 45.9976C29.0406 48.2949 27.75 51.4108 27.75 54.6597C27.75 55.1238 27.9344 55.5689 28.2626 55.8971C28.5908 56.2253 29.0359 56.4097 29.5 56.4097C29.9641 56.4097 30.4092 56.2253 30.7374 55.8971C31.0656 55.5689 31.25 55.1238 31.25 54.6597C31.25 52.339 32.1719 50.1134 33.8128 48.4725C35.4538 46.8315 37.6794 45.9097 40 45.9097C42.3206 45.9097 44.5462 46.8315 46.1872 48.4725C47.8281 50.1134 48.75 52.339 48.75 54.6597C48.75 55.1238 48.9344 55.5689 49.2626 55.8971C49.5908 56.2253 50.0359 56.4097 50.5 56.4097C50.9641 56.4097 51.4092 56.2253 51.7374 55.8971C52.0656 55.5689 52.25 55.1238 52.25 54.6597C52.25 51.4108 50.9594 48.2949 48.6621 45.9976C46.3647 43.7003 43.2489 42.4097 40 42.4097V42.4097Z" fill="#0169DC"/>
</svg>
