<svg width="80" height="80" viewBox="0 0 80 80" fill="none" xmlns="http://www.w3.org/2000/svg">
<circle cx="40" cy="40" r="40" fill="#1D4427"/>
<path d="M48.75 33.0001H47V29.6926C47 27.8361 46.2625 26.0556 44.9497 24.7428C43.637 23.4301 41.8565 22.6926 40 22.6926C38.1435 22.6926 36.363 23.4301 35.0503 24.7428C33.7375 26.0556 33 27.8361 33 29.6926V33.0001H31.25C29.8576 33.0001 28.5223 33.5532 27.5377 34.5378C26.5531 35.5223 26 36.8577 26 38.2501V52.2501C26 53.6425 26.5531 54.9778 27.5377 55.9624C28.5223 56.947 29.8576 57.5001 31.25 57.5001H48.75C50.1424 57.5001 51.4777 56.947 52.4623 55.9624C53.4469 54.9778 54 53.6425 54 52.2501V38.2501C54 36.8577 53.4469 35.5223 52.4623 34.5378C51.4777 33.5532 50.1424 33.0001 48.75 33.0001ZM36.5 29.6926C36.4765 28.7393 36.8315 27.8156 37.4875 27.1236C38.1435 26.4315 39.0469 26.0276 40 26.0001C40.9531 26.0276 41.8565 26.4315 42.5125 27.1236C43.1685 27.8156 43.5235 28.7393 43.5 29.6926V33.0001H36.5V29.6926ZM50.5 52.2501C50.5 52.7142 50.3156 53.1593 49.9874 53.4875C49.6592 53.8157 49.2141 54.0001 48.75 54.0001H31.25C30.7859 54.0001 30.3408 53.8157 30.0126 53.4875C29.6844 53.1593 29.5 52.7142 29.5 52.2501V38.2501C29.5 37.786 29.6844 37.3408 30.0126 37.0126C30.3408 36.6845 30.7859 36.5001 31.25 36.5001H48.75C49.2141 36.5001 49.6592 36.6845 49.9874 37.0126C50.3156 37.3408 50.5 37.786 50.5 38.2501V52.2501Z" fill="#63C173"/>
<path d="M40 40C38.9617 40 37.9466 40.3079 37.0833 40.8848C36.2199 41.4617 35.547 42.2816 35.1496 43.2409C34.7523 44.2002 34.6483 45.2558 34.8509 46.2742C35.0535 47.2926 35.5535 48.2281 36.2877 48.9623C37.0219 49.6965 37.9574 50.1966 38.9758 50.3991C39.9942 50.6017 41.0498 50.4977 42.0091 50.1004C42.9684 49.703 43.7883 49.0301 44.3652 48.1667C44.9421 47.3034 45.25 46.2884 45.25 45.25C45.25 43.8576 44.6969 42.5223 43.7123 41.5377C42.7277 40.5531 41.3924 40 40 40ZM40 47C39.6539 47 39.3155 46.8974 39.0278 46.7051C38.74 46.5128 38.5157 46.2395 38.3832 45.9197C38.2508 45.5999 38.2161 45.2481 38.2836 44.9086C38.3512 44.5691 38.5178 44.2573 38.7626 44.0126C39.0073 43.7678 39.3191 43.6011 39.6586 43.5336C39.9981 43.4661 40.3499 43.5008 40.6697 43.6332C40.9895 43.7657 41.2628 43.99 41.4551 44.2778C41.6474 44.5655 41.75 44.9039 41.75 45.25C41.75 45.7141 41.5656 46.1592 41.2374 46.4874C40.9093 46.8156 40.4641 47 40 47Z" fill="#63C173"/>
</svg>
