<svg width="80" height="81" viewBox="0 0 80 81" fill="none" xmlns="http://www.w3.org/2000/svg">
<circle cx="40" cy="40.6597" r="40" fill="#B7DFBA"/>
<path d="M48.75 33.6597H47V30.3522C47 28.4957 46.2625 26.7152 44.9497 25.4025C43.637 24.0897 41.8565 23.3522 40 23.3522C38.1435 23.3522 36.363 24.0897 35.0503 25.4025C33.7375 26.7152 33 28.4957 33 30.3522V33.6597H31.25C29.8576 33.6597 28.5223 34.2129 27.5377 35.1974C26.5531 36.182 26 37.5173 26 38.9097V52.9097C26 54.3021 26.5531 55.6375 27.5377 56.622C28.5223 57.6066 29.8576 58.1597 31.25 58.1597H48.75C50.1424 58.1597 51.4777 57.6066 52.4623 56.622C53.4469 55.6375 54 54.3021 54 52.9097V38.9097C54 37.5173 53.4469 36.182 52.4623 35.1974C51.4777 34.2129 50.1424 33.6597 48.75 33.6597ZM36.5 30.3522C36.4765 29.399 36.8315 28.4753 37.4875 27.7832C38.1435 27.0912 39.0469 26.6872 40 26.6597C40.9531 26.6872 41.8565 27.0912 42.5125 27.7832C43.1685 28.4753 43.5235 29.399 43.5 30.3522V33.6597H36.5V30.3522ZM50.5 52.9097C50.5 53.3739 50.3156 53.819 49.9874 54.1472C49.6593 54.4754 49.2141 54.6597 48.75 54.6597H31.25C30.7859 54.6597 30.3408 54.4754 30.0126 54.1472C29.6844 53.819 29.5 53.3739 29.5 52.9097V38.9097C29.5 38.4456 29.6844 38.0005 30.0126 37.6723C30.3408 37.3441 30.7859 37.1597 31.25 37.1597H48.75C49.2141 37.1597 49.6593 37.3441 49.9874 37.6723C50.3156 38.0005 50.5 38.4456 50.5 38.9097V52.9097Z" fill="#2A7B3B"/>
<path d="M40 40.6597C38.9617 40.6597 37.9466 40.9676 37.0833 41.5445C36.2199 42.1213 35.547 42.9413 35.1496 43.9006C34.7523 44.8599 34.6483 45.9155 34.8509 46.9339C35.0535 47.9523 35.5535 48.8878 36.2877 49.622C37.0219 50.3562 37.9574 50.8562 38.9758 51.0588C39.9942 51.2614 41.0498 51.1574 42.0091 50.76C42.9684 50.3627 43.7883 49.6898 44.3652 48.8264C44.9421 47.9631 45.25 46.948 45.25 45.9097C45.25 44.5173 44.6969 43.1819 43.7123 42.1974C42.7277 41.2128 41.3924 40.6597 40 40.6597ZM40 47.6597C39.6539 47.6597 39.3155 47.557 39.0278 47.3647C38.74 47.1724 38.5157 46.8991 38.3832 46.5794C38.2508 46.2596 38.2161 45.9077 38.2836 45.5683C38.3512 45.2288 38.5178 44.917 38.7626 44.6722C39.0073 44.4275 39.3191 44.2608 39.6586 44.1933C39.9981 44.1258 40.3499 44.1604 40.6697 44.2929C40.9895 44.4253 41.2628 44.6496 41.4551 44.9374C41.6474 45.2252 41.75 45.5636 41.75 45.9097C41.75 46.3738 41.5656 46.8189 41.2374 47.1471C40.9093 47.4753 40.4641 47.6597 40 47.6597Z" fill="#2A7B3B"/>
</svg>
