<svg width="512" height="512" viewBox="0 0 512 512" fill="none" xmlns="http://www.w3.org/2000/svg">
<g clip-path="url(#clip0)">
<rect width="512" height="512" rx="115" fill="white"/>
<rect y="-1" width="512" height="512" fill="#FCFCFC"/>
<path d="M136.207 323.844C94.5409 266.126 112.21 194.002 171.008 135.205C229.884 76.3283 303.005 57.7893 360.849 99.2622C365.369 102.503 366.687 110.316 360.738 116.265L153.266 323.738C147.327 329.676 139.488 328.39 136.207 323.844Z" fill="#4158F6" stroke="#4158F6" stroke-width="24"/>
<path d="M151.572 410.985C209.29 452.651 281.414 434.982 340.211 376.184C399.088 317.308 417.627 244.187 376.154 186.342C372.913 181.822 365.1 180.505 359.151 186.454L151.679 393.926C145.74 399.865 147.026 407.704 151.572 410.985Z" fill="#58C4EC" stroke="#58C4EC" stroke-width="24"/>
</g>
<defs>
<clipPath id="clip0">
<rect width="512" height="512" rx="115" fill="white"/>
</clipPath>
</defs>
</svg>
